<svg width="1320" height="769" viewBox="0 0 1320 769" fill="none" xmlns="http://www.w3.org/2000/svg">
<mask id="mask0_304_6" style="mask-type:alpha" maskUnits="userSpaceOnUse" x="0" y="0" width="1320" height="769">
<rect width="1320" height="769" rx="50" fill="#CAC7FF"/>
</mask>
<g mask="url(#mask0_304_6)">
<g filter="url(#filter0_f_304_6)">
<circle cx="1256" cy="80" r="123" fill="#4F46E5"/>
</g>
</g>
<mask id="mask1_304_6" style="mask-type:alpha" maskUnits="userSpaceOnUse" x="0" y="80" width="585" height="614">
<path d="M0 80H278C447.551 80 585 217.449 585 387C585 556.551 447.551 694 278 694H0V80Z" fill="#080857"/>
</mask>
<g mask="url(#mask1_304_6)">
<g opacity="0.5">
<path opacity="0.54" d="M-15.2292 579.31C-22.454 559.876 -7.72893 537.673 11.4964 529.925C30.7244 522.169 52.5193 525.307 72.6835 530.17C92.8504 535.024 113.128 541.529 133.816 540.157C176.634 537.31 209.47 502.378 236.631 469.188C263.793 435.998 293.844 399.695 336.087 392.129C369.208 386.202 402.454 399.552 435.948 402.778C494.417 408.414 554.958 380.454 588.523 332.286" stroke="#4F46E5" stroke-miterlimit="10"/>
<path opacity="0.54" d="M-14.5163 584.859C-21.7494 565.452 -7.20581 543.254 11.8961 535.32C13.6012 534.606 15.3363 533.992 17.0824 533.44C34.8878 527.911 54.5588 530.667 72.9121 534.873C76.4559 535.684 80.0043 536.546 83.5526 537.408C100.212 541.462 116.993 545.513 134.017 544.293C139.533 543.901 144.892 542.973 150.089 541.587C185.159 532.253 212.974 501.997 236.376 472.946C238.074 470.831 239.784 468.711 241.506 466.584C267.003 435.099 295.342 403.043 334.103 394.595C345.189 392.18 356.37 391.602 367.814 392.602C381.325 393.777 394.915 397.074 408.287 400.164C417.416 402.273 426.495 404.287 435.643 405.542C439.943 406.132 444.269 406.539 448.613 406.753C476.27 408.126 504.522 401.537 529.437 388.756C554.411 375.942 576.108 357.034 591.944 333.868" stroke="#4F46E5" stroke-miterlimit="10"/>
<path opacity="0.54" d="M-13.8036 590.409C-21.0514 571.018 -6.69211 548.834 12.2864 540.713C13.9851 539.987 15.7075 539.349 17.4471 538.785C35.1538 533.087 54.7877 535.602 73.1496 539.58C76.6953 540.352 80.2364 541.172 83.7867 541.995C100.444 545.858 117.232 549.751 134.223 548.441C139.729 548.017 145.082 547.077 150.276 545.669C185.317 536.197 212.992 505.909 236.135 476.719C237.815 474.6 239.51 472.465 241.205 470.329C266.377 438.696 294.194 406.843 332.149 397.092C343.238 394.239 354.476 392.909 366.231 393.673C380.125 394.574 394.146 398.23 407.698 401.815C416.947 404.259 426.091 406.683 435.344 408.319C439.701 409.086 444.074 409.668 448.501 410.036C476.67 412.393 506.043 405.833 531.631 392.546C557.275 379.236 579.276 359.421 595.358 335.44" stroke="#4F46E5" stroke-miterlimit="10"/>
<path opacity="0.54" d="M-13.1005 595.955C-20.3566 576.592 -6.18788 554.411 12.6736 546.114C14.3567 545.374 16.0663 544.711 17.7996 544.136C35.4195 538.261 55.007 540.533 73.3748 544.293C76.9133 545.023 80.4682 545.797 84.0112 546.578C100.666 550.251 117.453 553.983 134.42 552.586C139.913 552.138 145.253 551.174 150.441 549.754C185.442 540.15 212.985 509.833 235.874 480.496C237.538 478.362 239.205 476.218 240.882 474.078C265.731 442.287 293.045 410.611 330.167 399.58C341.27 396.281 352.551 394.215 364.627 394.747C378.906 395.364 393.355 399.39 407.085 403.478C416.461 406.26 425.661 409.099 435.021 411.108C439.422 412.058 443.864 412.811 448.365 413.331C477.046 416.672 507.538 410.15 533.798 396.357C560.115 382.541 582.417 361.828 598.755 337.035" stroke="#4F46E5" stroke-miterlimit="10"/>
<path opacity="0.54" d="M-12.3902 601.514C-19.6518 582.169 -5.66738 560.002 13.0615 551.515C14.741 550.754 16.4323 550.086 18.1528 549.487C35.6768 543.433 55.2244 545.473 73.598 549.016C77.1412 549.696 80.6861 550.438 84.2401 551.182C100.893 554.664 117.69 558.23 134.63 556.755C140.114 556.274 145.447 555.298 150.622 553.855C185.592 544.121 212.989 513.759 235.638 484.29C237.284 482.15 238.935 479.992 240.587 477.834C265.111 445.895 291.932 414.33 328.211 402.085C339.322 398.33 350.664 395.533 363.048 395.838C377.722 396.175 392.59 400.567 406.501 405.149C415.993 408.276 425.261 411.516 434.735 413.908C439.184 415.033 443.694 415.956 448.275 416.64C477.467 420.974 509.082 414.472 536.012 400.182C562.999 385.869 585.605 364.249 602.198 338.645" stroke="#4F46E5" stroke-miterlimit="10"/>
<path opacity="0.54" d="M-11.6776 607.064C-18.9567 587.743 -5.15095 565.572 13.4517 556.908C15.1157 556.132 16.8033 555.443 18.5174 554.832C35.9455 548.599 55.4532 550.407 73.8354 553.723C77.3805 554.364 80.9273 555.066 84.4741 555.768C101.124 559.06 117.929 562.468 134.836 560.903C140.307 560.399 145.628 559.399 150.808 557.937C185.75 548.065 213.004 517.68 235.397 488.064C237.028 485.909 238.649 483.752 240.285 481.579C264.484 449.492 290.816 417.989 326.251 404.57C337.391 400.354 348.761 396.836 361.459 396.896C376.515 396.96 391.814 401.711 405.915 406.79C415.535 410.256 424.869 413.905 434.439 416.676C438.944 417.977 443.501 419.074 448.166 419.914C477.87 425.232 510.603 418.768 538.206 403.972C565.856 389.15 588.773 366.635 605.621 340.219" stroke="#4F46E5" stroke-miterlimit="10"/>
<path opacity="0.54" d="M-10.9646 612.613C-18.2492 593.311 -4.63692 571.152 13.8515 562.303C15.4999 561.512 17.1839 560.802 18.8825 560.176C36.221 553.777 55.6851 555.332 74.0613 558.436C77.6083 559.038 81.1506 559.688 84.6993 560.351C101.344 563.462 118.15 566.701 135.034 565.049C140.495 564.511 145.812 563.49 150.976 562.013C185.888 552.012 213.004 521.586 235.139 491.832C236.751 489.672 238.357 487.5 239.966 485.318C263.84 453.083 289.697 421.597 324.27 407.058C335.433 402.369 346.84 398.134 359.855 397.97C375.297 397.75 391.024 402.871 405.303 408.453C415.041 412.254 424.442 416.313 434.116 419.465C438.666 420.95 443.292 422.217 448.039 423.212C478.256 429.514 512.11 423.079 540.383 407.786C568.703 392.467 591.924 369.045 609.027 341.817" stroke="#4F46E5" stroke-miterlimit="10"/>
<path opacity="0.54" d="M-10.2612 618.16C-17.5632 598.883 -4.12325 576.731 14.2298 567.701C15.8719 566.899 17.5403 566.174 19.2352 565.527C36.4778 558.949 55.902 560.272 74.2869 563.149C77.8266 563.709 81.3799 564.323 84.9214 564.943C101.573 567.866 118.38 570.936 135.228 569.203C140.677 568.641 145.99 567.599 151.142 566.099C186.022 555.968 212.998 525.509 234.878 495.608C236.465 493.431 238.053 491.253 239.643 489.067C263.192 456.683 288.56 425.159 322.288 409.546C333.48 404.366 344.915 399.44 358.254 399.034C374.081 398.531 390.237 404.022 404.696 410.098C414.562 414.237 424.02 418.703 433.808 422.239C438.414 423.901 443.087 425.342 447.918 426.492C478.644 433.787 513.619 427.381 542.565 411.582C571.558 395.757 595.08 371.437 612.429 343.394" stroke="#4F46E5" stroke-miterlimit="10"/>
<path opacity="0.54" d="M-9.55063 623.719C-16.861 604.468 -3.61167 582.319 14.6272 573.105C16.2564 572.279 17.9185 571.542 19.5978 570.881C36.7537 564.126 56.1223 565.203 74.5222 567.864C78.0666 568.376 81.6127 568.948 85.156 569.529C101.805 572.261 118.62 575.173 135.436 573.35C140.88 572.768 146.171 571.699 151.326 570.189C186.169 559.918 213.014 529.43 234.635 499.391C236.204 497.207 237.776 495.015 239.342 492.811C262.557 460.277 287.445 428.688 320.326 412.04C331.549 406.36 343.022 400.746 356.659 400.111C372.869 399.334 389.456 405.184 404.096 411.754C414.081 416.229 423.602 421.113 433.495 425.031C438.149 426.866 442.887 428.488 447.792 429.79C479.031 438.068 515.117 431.689 544.742 415.396C574.405 399.074 598.234 373.838 615.836 344.992" stroke="#4F46E5" stroke-miterlimit="10"/>
<path opacity="0.54" d="M-8.83875 629.269C-16.1638 610.035 -3.08955 587.902 15.0167 578.498C16.6395 577.66 18.2888 576.9 19.9526 576.224C37.0097 569.3 56.3412 570.135 74.747 572.579C78.2933 573.051 81.8413 573.583 85.3865 574.125C102.033 576.667 118.846 579.418 135.638 577.509C141.073 576.893 146.358 575.812 151.499 574.279C186.312 563.878 213.017 533.358 234.391 503.174C235.942 500.986 237.49 498.776 239.037 496.566C261.926 463.884 286.321 432.175 318.359 414.544C329.607 408.352 341.115 402.059 355.073 401.191C371.668 400.131 388.686 406.341 403.513 413.418C413.623 418.24 423.203 423.522 433.21 427.823C437.909 429.842 442.716 431.634 447.704 433.091C479.452 442.363 516.66 436.012 546.957 419.213C577.29 402.395 601.432 376.254 619.28 346.593" stroke="#4F46E5" stroke-miterlimit="10"/>
<path opacity="0.54" d="M-8.12578 634.818C-15.4591 615.611 -2.57279 593.472 15.4045 583.899C17.0118 583.046 18.6455 582.271 20.3149 581.576C37.2852 574.476 56.5704 575.068 74.9821 577.294C78.5211 577.724 82.071 578.217 85.6181 578.719C102.26 581.079 119.086 583.655 135.842 581.665C141.264 581.025 146.536 579.921 151.674 578.366C186.455 567.837 213.02 537.283 234.14 506.953C235.675 504.75 237.204 502.534 238.724 500.316C261.288 467.486 285.182 435.616 316.387 417.033C327.663 410.321 339.2 403.367 353.478 402.267C370.459 400.923 387.905 407.503 402.91 415.082C413.148 420.243 422.785 425.932 432.897 430.615C437.652 432.81 442.507 434.776 447.578 436.388C479.839 446.644 518.167 440.322 549.137 423.017C580.143 405.693 604.586 378.654 622.689 348.182" stroke="#4F46E5" stroke-miterlimit="10"/>
<path opacity="0.54" d="M-7.42225 640.365C-14.7703 621.173 -2.06818 599.048 15.7949 589.291C17.3894 588.414 19.0167 587.627 20.6705 586.918C37.5449 579.639 56.7902 579.999 75.1985 582.004C78.7394 582.394 82.294 582.839 85.8338 583.299C102.473 585.469 119.307 587.887 136.039 585.81C141.451 585.137 146.717 584.021 151.851 582.445C186.604 571.777 213.02 541.189 233.89 510.723C235.407 508.514 236.911 506.282 238.416 504.049C260.655 471.07 284.025 439.012 314.418 419.515C325.714 412.269 337.291 404.658 351.88 403.322C369.243 401.705 387.121 408.644 402.306 416.718C412.662 422.214 422.366 428.312 432.582 433.376C437.382 435.755 442.305 437.892 447.459 439.659C480.233 450.898 519.682 444.605 551.322 426.803C582.998 408.982 607.745 381.036 626.103 349.752" stroke="#4F46E5" stroke-miterlimit="10"/>
<path opacity="0.54" d="M-6.71205 645.924C-14.0684 626.76 -1.54777 604.64 16.1827 594.693C17.7708 593.804 19.3853 592.993 21.0355 592.263C37.814 584.805 57.0221 584.924 75.4363 586.711C78.9819 587.053 82.5264 587.465 86.0682 587.885C102.705 589.865 119.537 592.123 136.246 589.958C141.645 589.262 146.91 588.115 152.029 586.525C186.751 575.728 213.026 545.107 233.641 514.494C235.142 512.271 236.628 510.032 238.105 507.791C260.022 474.655 282.85 442.374 312.449 421.997C323.769 414.209 335.388 405.962 350.288 404.39C368.037 402.489 386.342 409.798 401.718 418.368C412.201 424.203 421.969 430.72 432.293 436.156C437.149 438.712 442.128 441.025 447.357 442.944C480.64 455.177 521.21 448.913 553.523 430.605C585.871 412.278 610.92 383.434 629.524 351.335" stroke="#4F46E5" stroke-miterlimit="10"/>
<path opacity="0.54" d="M-5.99962 651.474C-13.3707 632.325 -1.03428 610.22 16.582 600.088C18.1545 599.185 19.7626 598.362 21.4 597.608C38.0889 589.984 57.2507 589.859 75.6708 591.428C79.2183 591.73 82.7583 592.091 86.2993 592.481C102.934 594.27 119.776 596.361 136.45 594.116C141.836 593.396 147.088 592.225 152.203 590.614C186.885 579.685 213.032 549.025 233.389 518.275C234.863 516.043 236.333 513.79 237.791 511.543C259.383 478.259 281.656 445.73 310.483 424.501C321.811 416.156 333.481 407.274 348.702 405.47C366.836 403.286 385.57 410.964 401.124 420.038C411.723 426.217 421.559 433.134 431.988 438.952C436.892 441.682 441.93 444.163 447.239 446.246C481.035 459.463 522.726 453.228 555.708 434.423C588.727 415.599 614.079 385.848 632.939 352.937" stroke="#4F46E5" stroke-miterlimit="10"/>
<path opacity="0.54" d="M-5.29583 657.019C-12.6752 637.898 -0.529444 615.795 16.9606 605.486C18.5176 604.568 20.1221 603.724 21.7439 602.955C38.3369 595.152 57.4615 594.786 75.8875 596.137C79.4277 596.397 82.9788 596.721 86.5244 597.063C103.163 598.673 120.007 600.595 136.647 598.26C142.023 597.507 147.269 596.324 152.378 594.701C187.029 583.642 213.036 552.951 233.146 522.056C234.604 519.809 236.056 517.551 237.487 515.296C258.754 481.863 280.462 449.054 308.52 426.993C319.86 418.082 331.576 408.585 347.108 406.545C365.624 404.087 384.78 412.122 400.523 421.693C411.25 428.21 421.144 435.534 431.687 441.736C436.635 444.649 441.742 447.301 447.134 449.539C481.442 463.74 524.251 457.543 557.906 438.232C591.597 418.902 617.251 388.253 636.366 354.531" stroke="#4F46E5" stroke-miterlimit="10"/>
<path opacity="0.54" d="M-4.583 662.569C-11.977 643.464 -0.00639157 621.378 17.3511 610.878C18.9044 609.939 20.4934 609.08 22.1088 608.3C38.615 600.32 57.6906 599.72 76.116 600.841C79.6581 601.062 83.202 601.344 86.7494 601.646C103.385 603.066 120.228 604.827 136.844 602.405C142.208 601.628 147.44 600.422 152.546 598.778C187.169 587.581 213.035 556.857 232.887 525.824C234.327 523.572 235.752 521.305 237.17 519.026C258.112 485.445 279.224 452.326 306.542 429.472C317.874 419.989 329.657 409.874 345.509 407.6C364.411 404.86 383.996 413.264 399.919 423.329C410.765 430.181 420.725 437.915 431.372 444.498C436.377 447.588 441.531 450.414 447.006 452.807C481.824 468.001 525.757 461.824 560.082 442.016C594.443 422.189 620.401 390.634 639.771 356.099" stroke="#4F46E5" stroke-miterlimit="10"/>
<path opacity="0.54" d="M-3.87341 668.128C-11.2757 649.05 0.507018 626.957 17.7475 616.283C19.2853 615.329 20.8587 614.455 22.4704 613.654C38.8808 605.495 57.9163 604.663 76.3477 605.566C79.8944 605.739 83.4402 605.981 86.9804 606.241C103.614 607.471 120.467 609.066 137.048 606.563C142.401 605.753 147.627 604.535 152.72 602.866C187.312 591.54 213.038 560.784 232.635 529.604C234.059 527.337 235.466 525.065 236.856 522.778C257.473 489.049 277.98 455.616 304.569 431.963C315.888 421.897 327.751 411.186 343.914 408.677C363.202 405.654 383.214 414.427 399.328 424.988C410.301 432.179 420.315 440.329 431.07 447.284C436.119 450.558 441.342 453.554 446.891 456.1C482.221 472.277 527.272 466.138 562.27 445.824C597.304 425.491 623.563 393.038 643.189 357.691" stroke="#4F46E5" stroke-miterlimit="10"/>
<path opacity="0.54" d="M-3.16117 673.678C-10.569 654.618 1.02032 632.537 18.1346 621.684C19.666 620.719 21.2266 619.822 22.832 619.008C39.1436 610.68 58.1448 609.598 76.582 610.283C80.1307 610.416 83.6692 610.616 87.2113 610.837C103.842 611.875 120.703 613.313 137.251 610.72C142.591 609.886 147.814 608.647 152.903 606.958C187.464 595.502 213.051 564.714 232.392 533.386C233.798 531.114 235.179 528.824 236.552 526.532C256.843 492.655 276.71 458.89 302.603 434.466C313.901 423.805 325.844 412.499 342.316 409.763C361.986 406.466 382.43 415.599 398.721 426.664C409.813 434.19 419.894 442.75 430.762 450.089C435.868 453.539 441.147 456.712 446.78 459.413C482.62 476.583 528.794 470.464 564.462 449.654C600.166 428.824 626.729 395.463 646.601 359.302" stroke="#4F46E5" stroke-miterlimit="10"/>
<path opacity="0.54" d="M-2.45711 679.224C-9.88242 660.189 1.5346 638.115 18.5255 627.076C20.0441 626.086 21.5983 625.177 23.1881 624.349C39.413 615.845 58.3651 614.528 76.8082 614.995C80.3496 615.086 83.9019 615.24 87.434 615.428C104.063 616.276 120.921 617.553 137.455 614.876C142.783 614.019 147.996 612.746 153.078 611.045C187.602 599.449 213.057 568.63 232.14 537.165C233.531 534.878 234.894 532.583 236.239 530.282C256.205 496.257 275.43 462.138 300.631 436.956C311.901 425.697 323.93 413.807 340.724 410.83C360.78 407.249 381.655 416.742 398.124 428.31C409.341 436.184 419.49 445.144 430.452 452.871C435.605 456.495 440.941 459.845 446.656 462.701C483.018 480.858 530.302 474.774 566.645 453.449C603.019 432.122 629.886 397.854 650.013 360.881" stroke="#4F46E5" stroke-miterlimit="10"/>
<path opacity="0.54" d="M-1.74433 684.774C-9.17517 665.757 2.04843 643.695 18.9159 632.468C20.4189 631.464 21.9668 630.543 23.5438 629.691C39.6727 621.008 58.5876 619.45 77.0366 619.699C80.5799 619.751 84.125 619.863 87.6709 620.005C104.294 620.672 121.166 621.773 137.667 619.006C142.985 618.115 148.191 616.831 153.258 615.116C187.751 603.39 213.057 572.536 231.903 540.929C233.266 538.634 234.623 536.327 235.952 534.012C255.593 499.838 274.145 465.366 298.683 439.435C309.905 427.571 322.041 415.095 339.154 411.894C359.595 408.03 380.898 417.892 397.548 429.954C408.892 438.166 419.099 447.533 430.165 455.641C435.372 459.452 440.767 462.97 446.565 465.98C483.44 485.121 531.844 479.067 568.858 457.244C605.904 435.411 633.082 400.248 653.455 362.46" stroke="#4F46E5" stroke-miterlimit="10"/>
<path opacity="0.54" d="M-1.0344 690.334C-8.48269 671.342 2.55943 649.285 19.3035 637.871C20.8001 636.854 22.3352 635.91 23.9058 635.046C39.9452 626.196 58.8138 624.394 77.2622 624.413C80.8102 624.416 84.3544 624.498 87.8931 624.598C104.514 625.074 121.394 626.018 137.862 623.162C143.166 622.247 148.36 620.939 153.423 619.202C187.885 607.347 213.054 576.452 231.641 544.707C232.989 542.398 234.318 540.082 235.629 537.761C254.936 503.437 272.805 468.608 296.699 441.933C307.873 429.466 320.124 416.415 337.54 412.966C358.364 408.828 380.099 419.05 396.935 431.618C408.399 440.166 418.671 449.942 429.851 458.434C435.105 462.419 440.566 466.116 446.439 469.279C483.823 489.413 533.348 483.388 571.034 461.059C608.75 438.729 636.235 402.65 656.86 364.059" stroke="#4F46E5" stroke-miterlimit="10"/>
<path opacity="0.54" d="M-0.32196 695.883C-7.77578 676.909 3.08483 654.857 19.6999 643.274C21.181 642.243 22.7124 641.278 24.2675 640.399C40.211 631.37 59.0424 629.328 77.4939 629.138C81.0438 629.102 84.5835 629.132 88.1241 629.193C104.752 629.481 121.621 630.262 138.065 627.318C143.36 626.371 148.547 625.051 153.607 623.293C188.04 611.299 213.066 580.381 231.398 548.489C232.727 546.174 234.041 543.844 235.325 541.514C254.309 507.033 271.469 471.84 294.736 444.426C305.847 431.341 318.22 417.717 335.954 414.044C357.164 409.623 379.326 420.215 396.344 433.277C407.935 442.163 418.261 452.355 429.549 461.219C434.851 465.378 440.368 469.253 446.324 472.57C484.22 493.689 534.857 487.689 573.222 464.866C611.611 442.031 639.397 405.054 660.278 365.651" stroke="#4F46E5" stroke-miterlimit="10"/>
<path opacity="0.54" d="M0.381777 701.43C-7.08951 682.48 3.58963 660.434 20.0813 648.664C21.5588 647.612 23.0719 646.641 24.6141 645.738C40.4617 636.531 59.2532 634.256 77.7134 633.839C81.256 633.761 84.8068 633.755 88.3401 633.773C104.965 633.871 121.842 634.494 138.253 631.461C143.535 630.489 148.719 629.148 153.766 627.367C188.169 615.244 213.057 584.284 231.13 552.255C232.444 549.924 233.731 547.586 234.996 545.251C253.655 510.621 270.078 475.056 292.746 446.912C303.782 433.214 316.287 419.021 334.344 415.106C355.948 410.405 378.53 421.363 395.728 434.919C407.435 444.15 417.83 454.742 429.232 463.991C434.587 468.336 440.164 472.378 446.203 475.85C484.612 497.953 536.367 491.991 575.405 468.662C614.464 445.33 642.554 407.446 663.681 367.228" stroke="#4F46E5" stroke-miterlimit="10"/>
<path opacity="0.54" d="M1.09461 706.98C-6.38221 688.049 4.10352 666.014 20.481 654.059C21.9429 652.993 23.4432 651.997 24.9882 651.086C40.749 641.702 59.4942 639.184 77.9575 638.558C81.502 638.441 85.0483 638.383 88.5807 638.371C105.201 638.288 122.09 638.735 138.466 635.621C143.738 634.617 148.906 633.261 153.95 631.458C188.312 619.204 213.069 588.214 230.888 556.037C232.183 553.702 233.454 551.348 234.694 548.996C253.028 514.218 268.711 478.29 290.786 449.397C301.731 435.072 314.387 420.315 332.752 416.174C354.739 411.199 377.752 422.516 395.14 436.57C406.974 446.139 417.427 457.138 428.933 466.768C434.336 471.287 439.972 475.497 446.091 479.133C485.01 502.229 537.889 496.287 577.597 472.461C617.319 448.62 645.719 409.841 667.102 368.811" stroke="#4F46E5" stroke-miterlimit="10"/>
<path opacity="0.54" d="M1.80447 712.538C-5.6898 693.632 4.62359 671.604 20.8657 659.469C22.312 658.388 23.8087 657.372 25.3382 656.445C41.0003 646.892 59.7083 644.133 78.171 643.277C81.7175 643.12 85.2656 643.023 88.8027 642.963C105.42 642.689 122.308 642.976 138.661 639.775C143.92 638.747 149.084 637.37 154.124 635.546C188.458 623.153 213.073 592.14 230.635 559.816C231.915 557.466 233.159 555.105 234.381 552.747C252.39 517.821 267.305 481.52 288.82 451.899C299.672 436.957 312.49 421.63 331.167 417.253C353.539 411.994 376.98 423.681 394.545 438.238C406.498 448.142 417.017 459.551 428.629 469.562C434.085 474.267 439.78 478.645 445.983 482.436C485.414 506.516 539.411 500.612 579.791 476.281C620.184 451.942 648.888 412.256 670.526 370.415" stroke="#4F46E5" stroke-miterlimit="10"/>
<path opacity="0.54" d="M2.51717 718.087C-4.98263 699.199 5.13735 677.183 21.2652 664.864C22.7079 663.761 24.1862 662.739 25.7149 661.783C41.2902 652.054 59.9519 649.051 78.4205 647.977C81.9624 647.769 85.5097 647.642 89.0487 647.542C105.664 647.077 122.56 647.207 138.888 643.919C144.135 642.866 149.289 641.457 154.319 639.63C188.623 627.108 213.1 596.054 230.413 563.595C231.675 561.239 232.9 558.872 234.097 556.496C251.781 521.422 265.917 484.757 286.878 454.388C297.621 438.814 310.605 422.938 329.602 418.328C352.36 412.786 376.229 424.842 393.975 439.893C406.056 450.136 416.638 461.963 428.357 472.346C433.861 477.225 439.622 481.783 445.898 485.727C485.839 510.799 540.96 504.915 582.022 480.081C623.084 455.246 652.093 414.652 673.986 371.999" stroke="#4F46E5" stroke-miterlimit="10"/>
<path opacity="0.54" d="M3.22053 723.634C-4.29673 704.77 5.6537 682.753 21.6462 670.253C23.0734 669.136 24.5481 668.093 26.0612 667.122C41.5405 657.214 60.1623 653.979 78.6368 652.688C82.1806 652.44 85.7326 652.264 89.2616 652.132C105.874 651.476 122.78 651.439 139.073 648.07C144.31 646.985 149.458 645.564 154.475 643.713C188.748 631.062 213.085 599.975 230.143 567.369C231.38 564.996 232.586 562.623 233.768 560.233C251.127 525.011 264.472 487.986 284.887 456.874C295.519 440.676 308.674 424.232 327.982 419.387C351.123 413.572 375.423 425.987 393.35 441.532C405.549 452.11 416.198 464.348 428.021 475.112C433.572 480.165 439.39 484.9 445.749 488.998C486.203 515.055 542.444 509.2 584.177 483.868C625.912 458.527 655.221 417.036 677.369 373.571" stroke="#4F46E5" stroke-miterlimit="10"/>
<path opacity="0.54" d="M3.93344 729.184C-3.58935 710.339 6.16766 688.333 22.0368 675.646C23.4575 674.517 24.9194 673.45 26.4169 672.464C41.8068 662.389 60.3822 658.911 78.8654 657.392C82.4111 657.105 85.9558 656.887 89.4894 656.706C106.1 655.86 123.004 655.663 139.274 652.207C144.497 651.098 149.642 649.655 154.656 647.784C188.897 635.003 213.087 603.872 229.896 571.131C231.115 568.752 232.306 566.365 233.46 563.966C250.494 528.596 263.026 491.216 282.921 459.347C293.422 442.521 306.774 425.527 326.393 420.446C349.919 414.347 374.65 427.123 392.761 443.183C405.086 454.109 415.794 466.743 427.732 477.892C433.337 483.131 439.213 488.033 445.656 492.287C486.622 519.327 543.982 513.511 586.386 487.673C628.791 461.835 658.405 419.436 680.808 375.159" stroke="#4F46E5" stroke-miterlimit="10"/>
<path opacity="0.54" d="M4.64299 734.743C-2.89726 715.923 6.67826 693.922 22.4303 681.06C23.8356 679.916 25.2911 678.837 26.785 677.83C42.0789 667.576 60.6171 663.857 79.1034 662.13C82.6511 661.803 86.2004 661.537 89.7241 661.322C106.338 660.298 123.244 659.931 139.481 656.385C144.694 655.243 149.823 653.786 154.833 651.893C189.038 638.972 213.094 607.82 229.648 574.932C230.851 572.538 232.014 570.143 233.15 567.739C249.859 532.22 261.567 494.491 280.949 461.868C291.321 444.414 304.862 426.858 324.802 421.544C348.713 415.162 373.873 428.307 392.164 444.861C404.617 456.125 415.382 469.167 427.424 480.696C433.076 486.11 439.019 491.191 445.535 495.597C487.011 523.631 545.494 517.834 588.569 491.499C631.647 465.155 661.562 421.859 684.211 376.767" stroke="#4F46E5" stroke-miterlimit="10"/>
<path opacity="0.54" d="M5.34652 740.29C-2.19925 721.488 7.19202 699.501 22.8115 686.449C24.2039 685.282 25.6531 684.191 27.1314 683.169C42.3294 672.737 60.8277 668.785 79.3135 666.828C82.8566 666.45 86.4051 666.153 89.9425 665.894C106.554 664.679 123.47 664.145 139.671 660.519C144.872 659.353 149.997 657.874 154.995 655.958C189.168 642.907 213.087 611.714 229.383 578.688C230.567 576.288 231.715 573.878 232.824 571.466C249.207 535.799 260.079 497.728 278.964 464.335C289.185 446.255 302.934 428.143 323.185 422.593C347.479 415.938 373.07 429.443 391.542 446.491C404.113 458.09 414.944 471.541 427.088 483.461C432.797 489.052 438.787 494.308 445.387 498.869C487.375 527.886 546.976 522.127 590.724 495.287C634.472 468.446 664.69 424.242 687.595 378.339" stroke="#4F46E5" stroke-miterlimit="10"/>
<path opacity="0.54" d="M6.05971 745.839C-1.49437 727.065 7.70625 705.081 23.2115 691.844C24.5975 690.665 26.0247 689.548 27.5058 688.517C42.617 677.908 61.069 673.713 79.5579 671.547C83.1029 671.129 86.6533 670.793 90.1835 670.491C106.793 669.086 123.707 668.392 139.885 664.679C145.082 663.492 150.185 661.987 155.185 660.061C189.328 646.881 213.107 615.656 229.156 582.485C230.325 580.071 231.445 577.653 232.538 575.226C248.599 539.401 258.629 501.006 277.017 466.844C287.087 448.139 301.047 429.461 321.618 423.678C346.297 416.74 372.316 430.614 390.969 448.156C403.668 460.094 414.554 473.961 426.815 486.256C432.568 492.029 438.626 497.456 445.309 502.172C487.81 532.173 548.532 526.443 592.95 499.106C637.37 471.759 667.899 426.66 691.05 379.942" stroke="#4F46E5" stroke-miterlimit="10"/>
<path opacity="0.54" d="M6.77252 751.389C-1.47071 730.958 9.96286 706.712 27.8615 693.858C45.7574 681.014 68.4698 677.177 90.4085 675.074C112.347 672.972 134.84 672.145 155.363 664.14C191.947 649.86 216.495 614.931 232.219 578.965C247.954 542.992 257.124 504.267 275.036 469.332C284.945 449.999 299.132 430.77 320.014 424.752C345.079 417.53 371.526 431.773 390.366 449.822C409.206 467.87 424.019 490.216 445.182 505.47C488.193 536.464 550.036 530.763 595.126 502.92C640.217 475.076 671.05 429.07 694.456 381.54" stroke="#4F46E5" stroke-miterlimit="10"/>
</g>
<g opacity="0.5">
<path opacity="0.54" d="M521.872 156.053C517.479 135.791 493.106 125.031 472.737 128.871C452.361 132.706 435.698 147.1 421.337 162.068C406.97 177.029 393.4 193.441 375.237 203.44C337.64 224.127 291.152 212.412 250.381 199.104C209.611 185.796 164.729 171.425 125.072 187.829C93.9818 200.695 73.1806 229.863 46.7109 250.639C0.507887 286.911 -65.5551 296.004 -119.794 273.535" stroke="#4F46E5" stroke-miterlimit="10"/>
<path opacity="0.54" d="M524.264 161.111C519.892 140.867 495.675 130.014 475.309 133.63C473.488 133.949 471.696 134.367 469.928 134.844C451.951 139.787 436.87 152.714 423.681 166.152C421.134 168.746 418.61 171.385 416.086 174.024C404.241 186.421 392.293 198.88 377.298 207.031C372.441 209.676 367.427 211.783 362.302 213.418C327.734 224.465 287.996 213.981 252.623 202.131C250.053 201.266 247.469 200.403 244.872 199.54C206.422 186.77 165.273 175.052 128.073 188.836C117.434 192.78 107.706 198.321 98.607 205.334C87.8616 213.608 78.1938 223.711 68.5985 233.524C62.0463 240.223 55.4859 246.813 48.4584 252.803C45.1547 255.618 41.7316 258.294 38.1881 260.816C15.6359 276.883 -11.7105 286.567 -39.585 289.236C-67.5269 291.91 -95.9947 287.684 -121.822 276.712" stroke="#4F46E5" stroke-miterlimit="10"/>
<path opacity="0.54" d="M526.656 166.17C522.305 145.931 498.251 134.99 477.888 138.382C476.066 138.687 474.271 139.078 472.503 139.542C454.517 144.289 439.338 156.993 426.019 170.245C423.449 172.806 420.908 175.406 418.362 178.013C406.416 190.248 394.376 202.578 379.36 210.636C374.494 213.248 369.479 215.342 364.346 216.956C329.727 227.872 290.089 217.285 254.86 205.18C252.302 204.301 249.723 203.416 247.145 202.532C208.89 189.462 168.288 177.633 131.065 189.885C120.187 193.461 110.006 198.4 100.517 205.382C89.3019 213.632 79.4651 224.271 69.984 234.597C63.513 241.642 57.1176 248.613 50.2074 254.98C46.9515 257.975 43.5824 260.823 40.0525 263.52C17.5991 280.693 -10.6757 291.006 -39.3895 293.611C-68.1636 296.228 -97.3765 291.402 -123.85 279.876" stroke="#4F46E5" stroke-miterlimit="10"/>
<path opacity="0.54" d="M529.054 171.22C524.725 151 500.833 139.958 480.474 143.14C478.658 143.424 476.861 143.788 475.091 144.238C457.084 148.791 441.812 161.265 428.37 174.335C425.784 176.857 423.207 179.426 420.644 181.994C408.598 194.067 396.473 206.262 381.43 214.233C376.561 216.818 371.544 218.885 366.41 220.486C331.754 231.269 292.21 220.586 257.117 208.22C254.564 207.32 252.004 206.413 249.438 205.514C211.369 192.138 171.287 180.188 134.075 190.912C122.946 194.121 112.331 198.463 102.447 205.421C90.7548 213.64 80.7563 224.821 71.3968 235.667C65.0005 243.066 58.7837 250.417 51.9836 257.155C48.7889 260.328 45.4542 263.357 41.944 266.222C19.5896 284.5 -9.60642 295.447 -39.1596 297.989C-68.773 300.543 -98.7239 295.123 -125.85 283.051" stroke="#4F46E5" stroke-miterlimit="10"/>
<path opacity="0.54" d="M531.453 176.284C527.138 156.076 503.409 144.947 483.06 147.898C481.235 148.162 479.45 148.512 477.678 148.935C459.656 153.285 444.292 165.542 430.728 178.432C428.111 180.916 425.526 183.452 422.933 185.995C410.786 197.906 398.563 209.966 383.5 217.857C378.622 220.409 373.604 222.462 368.468 224.037C333.768 234.694 294.324 223.895 259.361 211.288C256.821 210.373 254.266 209.446 251.712 208.519C213.837 194.843 174.23 182.719 137.074 191.967C125.691 194.795 114.631 198.555 104.365 205.489C92.1891 213.684 82.0351 225.4 72.7899 236.759C66.4819 244.511 60.4229 252.236 53.7339 259.359C50.5933 262.705 47.2928 265.913 43.8034 268.961C21.5551 288.349 -8.57654 299.919 -38.9619 302.404C-69.4074 304.9 -100.103 298.881 -127.883 286.263" stroke="#4F46E5" stroke-miterlimit="10"/>
<path opacity="0.54" d="M533.845 181.343C529.558 161.146 505.977 149.918 485.638 152.65C483.819 152.894 482.026 153.224 480.253 153.633C462.215 157.781 446.76 169.821 433.066 182.525C430.427 184.976 427.818 187.48 425.209 189.983C412.961 201.733 400.646 213.664 385.563 221.462C380.683 223.987 375.663 226.013 370.512 227.575C335.761 238.101 296.426 227.205 261.598 214.336C259.063 213.401 256.535 212.458 253.985 211.51C216.304 197.534 177.142 185.2 140.064 193.003C128.409 195.459 116.936 198.627 106.275 205.524C93.6286 213.695 83.3057 225.946 74.1685 237.826C67.9353 245.931 62.0414 254.037 55.476 261.531C52.3831 265.056 49.1366 268.437 45.6608 271.659C23.5114 292.153 -7.54135 304.358 -38.7661 306.779C-70.0447 309.204 -101.485 302.598 -129.917 289.434" stroke="#4F46E5" stroke-miterlimit="10"/>
<path opacity="0.54" d="M536.237 186.401C531.965 166.217 508.553 154.894 488.211 157.409C486.396 157.632 484.595 157.942 482.827 158.331C464.774 162.29 449.22 174.094 435.417 186.616C432.755 189.036 430.122 191.493 427.491 193.965C415.149 205.559 402.742 217.348 387.632 225.06C382.742 227.551 377.714 229.558 372.568 231.099C337.774 241.5 298.531 230.495 263.847 217.37C261.325 216.42 258.801 215.457 256.27 214.487C218.783 200.211 180.03 187.635 143.074 194.031C131.144 196.101 119.254 198.684 108.204 205.563C95.0808 213.704 84.5962 226.496 75.5805 238.896C69.4283 247.348 63.6995 255.835 57.2515 263.706C54.2198 267.409 51.0077 270.971 47.5454 274.369C25.4948 295.967 -6.48635 308.801 -38.5432 311.165C-70.654 313.533 -102.839 306.327 -131.924 292.617" stroke="#4F46E5" stroke-miterlimit="10"/>
<path opacity="0.54" d="M538.635 191.452C534.391 171.279 511.128 159.869 490.803 162.16C488.987 162.369 487.191 162.659 485.415 163.028C467.347 166.784 451.701 178.371 437.768 190.707C435.089 193.087 432.428 195.52 429.78 197.952C417.331 209.391 404.832 221.038 389.708 228.663C384.816 231.128 379.78 233.115 374.632 234.629C339.794 244.904 300.652 233.796 266.104 220.41C263.593 219.432 261.081 218.454 258.563 217.47C221.27 202.893 182.908 190.022 146.084 195.058C133.866 196.73 121.579 198.746 110.127 205.596C96.5261 213.706 85.8798 227.041 76.9784 239.954C70.901 248.76 65.3435 257.62 59.0066 265.876C56.0227 269.758 52.8646 273.492 49.4158 277.065C27.4714 299.775 -5.43818 313.238 -38.3344 315.538C-71.2846 317.843 -104.208 310.043 -133.939 295.779" stroke="#4F46E5" stroke-miterlimit="10"/>
<path opacity="0.54" d="M541.033 196.516C536.811 176.362 513.71 164.852 493.382 166.925C491.564 167.108 489.767 167.383 487.996 167.732C469.906 171.293 454.174 182.643 440.113 194.805C437.403 197.147 434.725 199.54 432.054 201.94C419.505 213.218 406.914 224.737 391.77 232.268C386.87 234.713 381.838 236.666 376.682 238.174C341.8 248.309 302.752 237.106 268.347 223.465C265.848 222.472 263.342 221.473 260.835 220.461C223.743 205.577 185.75 192.392 149.081 196.1C136.567 197.367 123.878 198.825 112.05 205.643C97.979 213.728 87.1637 227.599 78.3766 241.026C72.3803 250.178 66.9951 259.425 60.7755 268.058C57.8457 272.113 54.729 276.034 51.3001 279.775C29.4545 303.59 -4.37721 317.674 -38.1118 319.924C-71.894 322.172 -105.569 313.766 -135.946 298.962" stroke="#4F46E5" stroke-miterlimit="10"/>
<path opacity="0.54" d="M543.427 201.575C539.225 181.426 516.281 169.835 495.962 171.678C494.143 171.846 492.344 172.095 490.578 172.423C472.479 175.788 456.649 186.915 442.465 198.897C439.733 201.206 437.032 203.568 434.338 205.935C421.689 217.051 409.012 228.434 393.841 235.879C388.932 238.291 383.898 240.23 378.741 241.711C343.815 251.722 304.868 240.415 270.592 226.52C268.106 225.513 265.612 224.486 263.117 223.459C226.218 208.275 188.577 194.723 152.088 197.148C139.277 197.998 126.192 198.903 113.968 205.697C99.4205 213.752 88.4363 228.158 79.7645 242.112C73.8502 251.624 68.6291 261.238 62.5206 270.256C59.6521 274.49 56.5697 278.591 53.1543 282.507C31.4149 307.434 -3.34526 322.146 -37.9192 324.333C-72.5336 326.524 -106.96 317.525 -137.984 302.168" stroke="#4F46E5" stroke-miterlimit="10"/>
<path opacity="0.54" d="M545.818 206.632C541.638 186.502 518.849 174.804 498.547 176.435C496.733 176.583 494.939 176.811 493.159 177.127C475.039 180.297 459.116 191.193 444.809 202.995C442.061 205.265 439.337 207.594 436.62 209.929C423.877 220.89 411.095 232.132 395.91 239.49C390.999 241.874 385.963 243.787 380.798 245.248C345.828 255.133 306.982 243.724 272.842 229.566C270.361 228.539 267.879 227.497 265.403 226.449C228.698 210.965 191.392 197.007 155.091 198.182C141.976 198.608 128.51 198.972 115.891 205.744C100.866 213.768 89.72 228.716 81.1698 243.189C75.3303 253.055 70.2805 263.043 64.2894 272.439C61.4686 276.851 58.4402 281.125 55.0383 285.216C33.3978 311.248 -2.29074 326.589 -37.704 328.713C-73.1578 330.839 -108.322 321.247 -139.999 305.344" stroke="#4F46E5" stroke-miterlimit="10"/>
<path opacity="0.54" d="M548.216 211.683C544.057 191.558 521.43 179.773 501.125 181.187C499.309 181.308 497.515 181.523 495.74 181.817C477.603 184.785 461.589 195.464 447.167 207.078C444.395 209.316 441.641 211.607 438.908 213.903C426.064 224.702 413.191 235.815 397.979 243.087C393.058 245.439 388.022 247.337 382.848 248.779C347.827 258.532 309.088 247.013 275.085 232.607C272.616 231.565 270.145 230.496 267.675 229.426C231.164 213.642 194.197 199.244 158.088 199.21C144.667 199.198 130.814 199.03 117.806 205.771C102.311 213.77 90.9962 229.254 82.5603 244.241C76.8018 254.453 71.9171 264.821 66.0433 274.595C63.2838 279.186 60.2898 283.64 56.9014 287.907C35.3598 315.043 -1.25719 331.013 -37.5026 333.08C-73.7885 335.149 -109.698 324.956 -142.027 308.507" stroke="#4F46E5" stroke-miterlimit="10"/>
<path opacity="0.54" d="M550.615 216.747C546.478 196.641 524.007 184.763 503.711 185.945C501.894 186.053 500.097 186.24 498.314 186.515C480.162 189.281 464.049 199.737 449.504 211.171C446.703 213.37 443.939 215.628 441.183 217.892C428.239 228.529 415.28 239.506 400.041 246.692C395.119 249.016 390.067 250.889 384.898 252.31C349.834 261.938 311.195 250.316 277.328 235.649C274.864 234.586 272.406 233.502 269.954 232.411C233.63 216.32 196.999 201.441 161.084 200.239C147.351 199.783 133.119 199.101 119.723 205.811C103.75 213.78 92.2737 229.805 83.9458 245.313C78.2622 255.879 73.5497 266.634 67.7861 276.779C65.0743 281.55 62.128 286.183 58.7594 290.618C37.324 318.866 -0.221359 335.465 -37.3062 337.468C-74.4314 339.474 -111.079 328.687 -144.054 311.684" stroke="#4F46E5" stroke-miterlimit="10"/>
<path opacity="0.54" d="M553.008 221.806C548.891 201.705 526.583 189.739 506.284 190.704C504.472 190.791 502.674 190.966 500.889 191.213C482.723 193.79 466.517 204.016 451.85 215.269C449.025 217.437 446.238 219.649 443.467 221.887C430.422 232.362 417.364 243.205 402.112 250.304C397.187 252.601 392.133 254.447 386.956 255.848C351.854 265.343 313.302 253.619 279.578 238.696C277.134 237.612 274.681 236.507 272.241 235.401C236.111 219.011 199.814 203.624 164.09 201.287C150.05 200.367 135.433 199.179 121.641 205.866C105.191 213.804 93.5526 230.371 85.3462 246.399C79.7509 257.318 75.1962 268.447 69.5499 278.97C66.8922 283.913 63.9864 288.719 60.6386 293.336C39.302 322.688 0.828242 339.916 -37.0887 341.862C-75.046 343.81 -112.439 332.424 -146.067 314.875" stroke="#4F46E5" stroke-miterlimit="10"/>
<path opacity="0.54" d="M555.405 226.856C551.31 206.773 529.164 194.707 508.875 195.454C507.069 195.52 505.263 195.675 503.482 195.902C485.3 198.276 468.996 208.28 454.206 219.352C451.365 221.48 448.549 223.667 445.747 225.867C432.603 236.194 419.453 246.894 404.18 253.9C399.246 256.164 394.19 257.997 389.013 259.384C353.867 268.753 315.416 256.927 281.822 241.75C279.382 240.644 276.941 239.525 274.521 238.398C238.584 221.707 202.612 205.779 167.087 202.328C152.732 200.937 137.744 199.256 123.563 205.912C106.644 213.826 94.8426 230.921 86.7443 247.469C81.2237 258.742 76.8404 270.245 71.3052 281.152C68.7087 286.273 65.8372 291.26 62.503 296.053C41.2653 326.51 1.87038 344.373 -36.8859 346.255C-75.6827 348.14 -113.813 336.16 -148.094 318.065" stroke="#4F46E5" stroke-miterlimit="10"/>
<path opacity="0.54" d="M557.797 231.914C553.723 211.837 531.733 199.69 511.454 200.206C509.639 200.253 507.838 200.387 506.057 200.6C487.853 202.78 471.464 212.559 456.55 223.437C453.686 225.533 450.854 227.681 448.029 229.849C434.784 240.014 421.549 250.578 406.249 257.498C401.313 259.735 396.255 261.541 391.069 262.908C355.873 272.146 317.522 260.217 284.071 244.784C281.644 243.664 279.222 242.523 276.799 241.369C241.056 224.378 205.419 207.868 170.09 203.349C155.433 201.473 140.055 199.307 125.479 205.939C108.082 213.823 96.119 231.459 88.135 248.522C82.6955 260.141 78.4772 272.024 73.0594 283.309C70.5107 288.61 67.6932 293.769 64.3725 298.736C43.241 330.305 2.91039 348.79 -36.678 350.615C-76.3068 352.443 -115.182 339.863 -150.116 321.221" stroke="#4F46E5" stroke-miterlimit="10"/>
<path opacity="0.54" d="M560.196 236.979C556.144 216.92 534.309 204.666 514.034 204.972C512.224 204.997 510.428 205.11 508.639 205.304C490.419 207.281 473.939 216.844 458.903 227.542C456.009 229.6 453.153 231.715 450.312 233.843C436.966 243.847 423.633 254.276 408.319 261.109C403.374 263.313 398.315 265.105 393.127 266.446C357.887 275.558 319.637 263.525 286.321 247.831C283.9 246.691 281.49 245.535 279.086 244.359C243.537 227.068 208.241 209.968 173.094 204.384C158.134 202.009 142.368 199.384 127.403 205.986C109.528 213.839 97.404 232.017 89.528 249.6C84.1633 261.573 80.1236 273.836 74.8159 285.492C72.3284 290.972 69.5452 296.311 66.2443 301.447C45.2116 334.12 3.9599 353.241 -36.4679 355.002C-76.9361 356.767 -116.55 343.592 -152.136 324.405" stroke="#4F46E5" stroke-miterlimit="10"/>
<path opacity="0.54" d="M562.589 242.037C558.551 221.991 536.885 209.642 516.62 209.73C514.81 209.742 513.012 209.828 511.221 210.008C492.993 211.789 476.407 221.123 461.249 231.64C458.332 233.666 455.459 235.742 452.595 237.838C439.149 247.68 425.724 257.981 410.389 264.72C405.442 266.897 400.375 268.669 395.179 269.99C359.895 278.977 321.746 266.842 288.566 250.886C286.157 249.731 283.759 248.547 281.367 247.356C246.012 229.766 211.074 212.041 176.099 205.432C160.836 202.544 144.681 199.462 129.334 206.039C110.99 213.867 98.6964 232.582 90.942 250.684C85.6583 263.004 81.7837 275.647 76.5871 287.688C74.1474 293.347 71.412 298.866 68.1246 304.177C47.1981 337.962 5.01069 357.705 -36.2492 359.409C-77.5495 361.116 -117.908 347.342 -154.141 327.601" stroke="#4F46E5" stroke-miterlimit="10"/>
<path opacity="0.54" d="M564.986 247.087C560.977 227.052 539.46 214.618 519.198 214.481C517.385 214.466 515.586 214.539 513.801 214.699C495.551 216.284 478.88 225.394 463.599 235.731C460.665 237.717 457.757 239.762 454.883 241.825C441.336 251.505 427.826 261.67 412.458 268.33C407.509 270.48 402.433 272.219 397.235 273.527C361.907 282.374 323.852 270.144 290.815 253.933C288.411 252.757 286.025 251.559 283.652 250.346C248.491 232.455 213.904 214.085 179.102 206.466C163.541 203.059 146.999 199.532 131.25 206.079C112.428 213.877 99.9655 233.127 92.3326 251.749C87.131 264.428 83.4142 277.446 78.3484 289.864C75.9628 295.695 73.2752 301.393 70.0013 306.88C49.1674 341.777 6.0651 362.147 -36.0414 363.782C-78.1739 365.432 -119.278 351.058 -156.163 330.771" stroke="#4F46E5" stroke-miterlimit="10"/>
<path opacity="0.54" d="M567.378 252.146C563.383 232.123 542.035 219.594 521.777 219.233C519.969 219.198 518.169 219.257 516.381 219.389C498.116 220.773 481.346 229.659 465.943 239.816C462.986 241.77 460.061 243.776 457.151 245.807C443.511 255.332 429.895 265.356 414.506 271.923C409.548 274.039 404.47 275.765 399.278 277.052C363.906 285.774 325.958 273.433 293.045 256.975C290.659 255.777 288.273 254.566 285.905 253.332C250.938 235.141 216.727 216.111 182.079 207.503C166.232 203.562 149.284 199.598 133.146 206.128C113.847 213.895 101.223 233.687 93.7046 252.823C88.5778 265.856 85.0323 279.247 80.0838 292.043C77.7532 298.059 75.1061 303.931 71.8458 309.593C51.1108 345.595 7.08007 366.594 -35.8586 368.171C-78.8304 369.758 -120.678 354.797 -158.211 333.957" stroke="#4F46E5" stroke-miterlimit="10"/>
<path opacity="0.54" d="M569.778 257.211C565.811 237.2 544.619 224.577 524.363 223.992C522.554 223.943 520.752 223.975 518.964 224.094C500.684 225.289 483.821 233.945 468.294 243.908C465.308 245.823 462.367 247.803 459.441 249.795C445.699 259.158 431.992 269.054 416.583 275.527C411.622 277.617 406.543 279.316 401.342 280.583C365.926 289.179 328.072 276.73 295.302 260.016C292.921 258.797 290.553 257.564 288.198 256.316C253.431 237.818 219.603 218.12 185.097 208.537C168.965 204.062 151.611 199.675 135.083 206.161C115.314 213.904 102.521 234.231 95.1175 253.894C90.0717 267.273 86.6913 281.046 81.854 294.226C79.5774 300.414 76.9718 306.473 73.7312 312.303C53.1024 349.416 8.14328 371.044 -35.6347 372.558C-79.4387 374.087 -122.039 358.52 -160.217 337.14" stroke="#4F46E5" stroke-miterlimit="10"/>
<path opacity="0.54" d="M572.17 262.268C568.217 242.27 547.181 229.553 526.943 228.757C525.139 228.687 523.329 228.699 521.545 228.798C503.25 229.79 486.289 238.223 470.647 248.012C467.637 249.895 464.673 251.83 461.724 253.79C447.875 262.998 434.089 272.75 418.653 279.138C413.683 281.194 408.602 282.879 403.393 284.127C367.927 292.592 330.18 280.045 297.546 263.07C295.178 261.837 292.815 260.583 290.478 259.313C255.898 240.508 222.472 220.121 188.095 209.578C171.682 204.548 153.916 199.746 137 206.215C116.754 213.927 103.799 234.796 96.5103 254.972C91.5393 268.706 88.3374 282.857 83.6102 296.409C81.3876 302.77 78.8298 309.008 75.6028 315.013C55.0729 353.231 9.19157 375.48 -35.4248 376.944C-80.0681 378.41 -123.406 362.249 -162.237 340.323" stroke="#4F46E5" stroke-miterlimit="10"/>
<path opacity="0.54" d="M574.568 267.319C570.643 247.332 549.762 234.522 529.527 233.502C527.716 233.412 525.918 233.41 524.132 233.481C505.821 234.271 488.768 242.488 472.997 252.09C469.971 253.934 466.977 255.843 464.011 257.764C450.062 266.81 436.185 276.434 420.728 282.728C415.755 284.758 410.667 286.423 405.456 287.644C369.946 295.983 332.292 283.328 299.801 266.097C297.438 264.843 295.094 263.567 292.77 262.283C258.384 243.178 225.377 222.08 191.111 210.599C174.432 205.013 156.247 199.802 138.929 206.241C118.199 213.93 105.089 235.333 97.9141 256.023C93.0315 270.109 89.9874 284.635 85.3713 298.572C83.2038 305.118 80.6865 311.53 77.473 317.71C57.0419 357.033 10.2395 379.918 -35.2163 381.318C-80.6917 382.727 -124.775 365.966 -164.252 343.486" stroke="#4F46E5" stroke-miterlimit="10"/>
<path opacity="0.54" d="M576.96 272.378C573.05 252.403 552.338 239.499 532.1 238.261C530.293 238.151 528.493 238.122 526.7 238.187C508.368 238.782 491.223 246.768 475.336 256.196C472.287 258.008 469.269 259.871 466.288 261.766C452.245 270.657 438.262 280.14 422.791 286.347C417.81 288.343 412.726 289.988 407.507 291.189C371.96 299.395 334.4 286.644 302.045 269.152C299.695 267.883 297.356 266.587 295.043 265.274C260.851 245.87 228.271 224.066 194.102 211.634C177.16 205.472 158.546 199.867 140.845 206.282C119.646 213.946 106.366 235.885 99.2996 257.096C94.4918 271.536 91.619 286.435 87.1203 300.749C85.0067 307.468 82.53 314.053 79.3373 320.415C59.0124 360.849 11.2742 384.356 -35.0137 385.699C-81.3223 387.037 -126.149 369.69 -166.279 346.664" stroke="#4F46E5" stroke-miterlimit="10"/>
<path opacity="0.54" d="M579.359 277.442C575.477 257.478 554.914 244.488 534.693 243.025C532.891 242.894 531.083 242.845 529.295 242.889C510.954 243.288 493.71 251.051 477.7 260.285C474.628 262.065 471.588 263.897 468.576 265.753C454.433 274.482 440.365 283.829 424.867 289.95C419.884 291.919 414.792 293.544 409.564 294.725C373.966 302.8 336.515 289.953 304.295 272.199C301.95 270.909 299.63 269.591 297.329 268.264C263.331 248.559 231.197 226.029 197.107 212.682C179.911 205.949 160.852 199.952 142.762 206.335C121.085 213.969 107.645 236.45 100.699 258.181C95.9725 272.967 93.2648 288.247 88.8834 302.938C86.8249 309.843 84.3887 316.601 81.2095 323.138C60.9835 364.677 12.3242 388.819 -34.803 390.099C-81.9437 391.38 -127.516 373.432 -168.299 349.86" stroke="#4F46E5" stroke-miterlimit="10"/>
<path opacity="0.54" d="M581.75 282.499C577.883 262.548 557.49 249.463 537.265 247.783C535.455 247.632 533.659 247.569 531.856 247.587C513.493 247.791 496.157 255.324 480.024 264.378C476.928 266.112 473.872 267.917 470.838 269.742C456.594 278.309 442.435 287.527 426.91 293.562C421.924 295.504 416.823 297.096 411.601 298.27C375.96 306.219 338.602 293.263 306.519 275.261C304.187 273.957 301.879 272.624 299.59 271.269C265.785 251.264 234.111 228.006 200.084 213.731C182.639 206.407 163.144 200.036 144.66 206.397C122.505 214 108.903 237.023 102.072 259.267C97.4199 274.407 94.8846 290.074 90.6133 305.137C88.6088 312.213 86.2141 319.158 83.0547 325.863C62.9349 368.514 13.3399 393.278 -34.6329 394.502C-82.6057 395.725 -128.923 377.178 -170.359 353.06" stroke="#4F46E5" stroke-miterlimit="10"/>
<path opacity="0.54" d="M584.149 287.55C580.309 267.61 560.058 254.433 539.85 252.528C538.045 252.356 536.241 252.273 534.443 252.271C516.064 252.272 498.637 259.588 482.382 268.462C479.263 270.164 476.177 271.931 473.134 273.722C458.789 282.127 444.531 291.211 428.992 297.158C423.997 299.068 418.895 300.646 413.672 301.793C377.986 309.617 340.729 296.557 308.782 278.294C306.461 276.962 304.166 275.614 301.882 274.239C268.271 253.934 237.07 229.947 203.101 214.751C185.414 206.842 165.469 200.086 146.595 206.416C123.971 213.994 110.199 237.553 103.483 260.31C98.9116 275.797 96.5413 291.845 92.3873 307.285C90.4368 314.534 88.0899 321.658 84.944 328.539C64.9231 372.294 14.3998 397.687 -34.4052 398.854C-83.2174 400.014 -130.273 380.872 -172.361 356.208" stroke="#4F46E5" stroke-miterlimit="10"/>
<path opacity="0.54" d="M586.541 292.609C582.716 272.681 562.634 259.409 542.428 257.28C540.623 257.095 538.817 256.985 537.024 256.962C518.63 256.775 501.111 263.86 484.726 272.547C481.584 274.217 478.482 275.944 475.408 277.697C460.963 285.941 446.619 294.889 431.054 300.75C426.057 302.632 420.946 304.191 415.715 305.318C379.985 313.016 342.828 299.841 311.018 281.329C308.709 279.982 306.419 278.614 304.154 277.217C270.737 256.612 240.029 231.887 206.09 215.774C188.174 207.265 167.767 200.151 148.504 206.45C125.403 213.998 111.462 238.093 104.868 261.383C100.379 277.23 98.1728 293.645 94.13 309.47C92.2345 316.904 89.9281 324.202 86.7958 331.258C66.8737 376.118 15.4293 402.146 -34.215 403.249C-83.8594 404.352 -131.66 384.611 -174.401 359.4" stroke="#4F46E5" stroke-miterlimit="10"/>
<path opacity="0.54" d="M588.94 297.673C585.144 277.757 565.217 264.392 545.016 262.052C543.216 261.846 541.408 261.723 539.607 261.68C521.198 261.29 503.58 268.153 487.079 276.665C483.915 278.303 480.782 279.992 477.699 281.712C463.155 289.807 448.719 298.613 433.133 304.381C428.126 306.23 423.021 307.768 417.781 308.876C382.007 316.435 344.951 303.17 313.277 284.396C310.973 283.029 308.702 281.639 306.449 280.227C273.226 259.322 243.024 233.859 209.11 216.835C190.965 207.726 170.095 200.242 150.436 206.517C126.858 214.035 112.755 238.671 106.276 262.475C101.862 278.675 99.8266 295.463 95.9011 311.666C94.0596 319.273 91.7948 326.757 88.6822 333.981C68.8663 379.953 16.4861 406.603 -33.9903 407.649C-84.474 408.688 -133.012 388.353 -176.4 362.589" stroke="#4F46E5" stroke-miterlimit="10"/>
<path opacity="0.54" d="M591.339 302.724C587.556 282.821 567.793 269.367 547.6 266.796C545.798 266.564 543.99 266.427 542.194 266.363C523.769 265.771 506.06 272.417 489.436 280.735C486.248 282.327 483.099 283.991 479.98 285.679C465.334 293.613 450.8 302.284 435.2 307.965C430.192 309.787 425.078 311.305 419.836 312.386C384.019 319.819 347.056 306.445 315.525 287.416C313.234 286.035 310.967 284.624 308.733 283.19C275.705 261.985 246.022 235.783 212.112 217.842C193.757 208.126 172.411 200.285 152.364 206.529C128.315 214.023 114.044 239.194 107.679 263.512C103.345 280.059 101.476 297.227 97.6748 313.814C95.8811 321.6 93.6702 329.256 90.5712 336.656C70.8542 383.733 17.5529 411.018 -33.7629 412C-85.0788 412.983 -134.362 392.047 -178.402 365.737" stroke="#4F46E5" stroke-miterlimit="10"/>
<path opacity="0.54" d="M593.73 307.782C589.97 287.898 570.368 274.344 550.173 271.556C548.369 271.31 546.565 271.138 544.762 271.069C526.315 270.282 508.513 276.697 491.774 284.841C488.563 286.401 485.392 288.033 482.256 289.682C467.51 297.453 452.89 305.989 437.264 311.583C432.247 313.386 427.137 314.87 421.888 315.944C386.027 323.252 349.165 309.775 317.764 290.492C315.478 289.09 313.23 287.657 311.001 286.202C278.159 264.691 249.01 237.762 215.104 218.905C196.539 208.581 174.711 200.377 154.269 206.599C129.743 214.061 115.31 239.774 109.059 264.606C104.8 281.506 103.109 299.054 99.4119 316.02C97.6795 323.984 95.503 331.821 92.4175 339.396C72.7993 387.578 18.5696 415.492 -33.5783 416.417C-85.7335 417.336 -135.761 395.814 -180.448 368.95" stroke="#4F46E5" stroke-miterlimit="10"/>
<path opacity="0.54" d="M596.122 312.841C592.048 291.189 569.346 276.934 547.342 275.759C525.345 274.591 504.148 283.605 484.538 293.663C464.927 303.72 445.538 315.152 423.938 319.475C385.427 327.173 345.921 310.992 313.286 289.179C280.638 267.368 252.036 239.697 218.115 219.932C199.346 208.993 177.03 200.448 156.198 206.638C131.195 214.07 116.6 240.325 110.465 265.683C104.329 291.042 103.902 317.848 94.3023 342.105C74.7903 391.398 19.6322 419.941 -33.3551 420.803C-86.3424 421.664 -137.115 399.543 -182.455 372.133" stroke="#4F46E5" stroke-miterlimit="10"/>
</g>
</g>
<circle cx="570" cy="547" r="75.5" stroke="#4F46E5" stroke-linecap="round" stroke-linejoin="round" stroke-dasharray="4 4"/>
<circle cx="548" cy="536" r="75.5" stroke="#4F46E5" stroke-linecap="round" stroke-linejoin="round" stroke-dasharray="4 4"/>
<circle cx="530" cy="526" r="75.5" stroke="#4F46E5" stroke-linecap="round" stroke-linejoin="round" stroke-dasharray="4 4"/>
<defs>
<filter id="filter0_f_304_6" x="783" y="-393" width="946" height="946" filterUnits="userSpaceOnUse" color-interpolation-filters="sRGB">
<feFlood flood-opacity="0" result="BackgroundImageFix"/>
<feBlend mode="normal" in="SourceGraphic" in2="BackgroundImageFix" result="shape"/>
<feGaussianBlur stdDeviation="175" result="effect1_foregroundBlur_304_6"/>
</filter>
</defs>
</svg>
